<svg xmlns="http://www.w3.org/2000/svg" viewBox="0 0 485 128.63"><g id="Layer_2" data-name="Layer 2"><g id="Layer_1-2" data-name="Layer 1"><path d="M42.73,75.84a27.1,27.1,0,0,0,9.15-1.47A27,27,0,0,0,58,71.47l7,13.88q-2.56,2.19-8.77,4.43A43.45,43.45,0,0,1,41.53,92a40,40,0,0,1-15-2.79,38.41,38.41,0,0,1-12.33-7.84A37,37,0,0,1,5.87,69.53a35.89,35.89,0,0,1-3-14.78A36.56,36.56,0,0,1,14.18,28a38.44,38.44,0,0,1,12.35-7.9,40.05,40.05,0,0,1,15-2.81,43.2,43.2,0,0,1,14.72,2.24q6.21,2.23,8.77,4.42L58,37.81a24.62,24.62,0,0,0-6.15-2.92,27.36,27.36,0,0,0-9.15-1.45A25.24,25.24,0,0,0,33,35.16a19.57,19.57,0,0,0-6.94,4.73,19.88,19.88,0,0,0-4.15,6.77,23.15,23.15,0,0,0-1.36,7.93,23.47,23.47,0,0,0,1.36,8,20,20,0,0,0,4.15,6.81A19.55,19.55,0,0,0,33,74.12,25.24,25.24,0,0,0,42.73,75.84Z" transform="translate(-2.84 -17.27)"/><path d="M72.67,54.59a38.25,38.25,0,0,1,2.79-14.67A36.29,36.29,0,0,1,83.27,28a35.88,35.88,0,0,1,11.81-7.92,39.39,39.39,0,0,1,29.37,0A35.58,35.58,0,0,1,136.19,28,36,36,0,0,1,144,39.92a38.61,38.61,0,0,1,2.76,14.67A39.91,39.91,0,0,1,144,69.31a35.21,35.21,0,0,1-19.4,19.87A38.29,38.29,0,0,1,109.72,92a38.93,38.93,0,0,1-15.11-2.84,34.77,34.77,0,0,1-11.72-8,35.69,35.69,0,0,1-7.57-11.92A40.31,40.31,0,0,1,72.67,54.59Zm17,0a24.22,24.22,0,0,0,2.54,11.17,20.13,20.13,0,0,0,7.05,7.95,20,20,0,0,0,20.92,0,20.13,20.13,0,0,0,7-7.95,24.22,24.22,0,0,0,2.54-11.17,24.08,24.08,0,0,0-2.54-11.15,20.55,20.55,0,0,0-7-7.95,19.85,19.85,0,0,0-20.92,0,20.55,20.55,0,0,0-7.05,7.95A24.08,24.08,0,0,0,89.67,54.59Z" transform="translate(-2.84 -17.27)"/><path d="M232.88,18.58V90.71H216.6V48.25l.71-12.08L214.52,50,202.39,84.91h-16L174.31,50l-2.74-13.83.71,12.08V90.71H156V18.58h23l14.53,48.14,1,5.74,1-5.74,14.53-48.14Z" transform="translate(-2.84 -17.27)"/><path d="M246,18.58h26.22A31,31,0,0,1,284.74,21a20.17,20.17,0,0,1,8.88,7.38,21.8,21.8,0,0,1,3.3,12.37,22.8,22.8,0,0,1-3.3,12.54,21.47,21.47,0,0,1-8.88,7.87,28.23,28.23,0,0,1-12.52,2.71h-9.89V90.71H246ZM262.33,51h5.36a17.24,17.24,0,0,0,6-1,9.1,9.1,0,0,0,4.24-3.14,9.49,9.49,0,0,0,1.58-5.71,9.3,9.3,0,0,0-1.58-5.71,8.79,8.79,0,0,0-4.24-3,18,18,0,0,0-6-.93h-5.36Z" transform="translate(-2.84 -17.27)"/><path d="M348,18.58h16.34V62.89a32.26,32.26,0,0,1-3.5,15.44,24.54,24.54,0,0,1-10,10.11A31.78,31.78,0,0,1,335.33,92a32.21,32.21,0,0,1-15.62-3.58,24.26,24.26,0,0,1-10-10.11,32.49,32.49,0,0,1-3.47-15.44V18.58h16.28V62a19.74,19.74,0,0,0,1.56,8.3,11.14,11.14,0,0,0,4.45,5.11,13.1,13.1,0,0,0,6.83,1.72,12.74,12.74,0,0,0,6.73-1.72,11.19,11.19,0,0,0,4.39-5.11A19.74,19.74,0,0,0,348,62Z" transform="translate(-2.84 -17.27)"/><path d="M376.32,18.58H418V32.89H392.65V47.43h23.44V61.69H392.65v29H376.32Z" transform="translate(-2.84 -17.27)"/><path d="M446.75,64.75,421.89,18.58h19.83l13.17,27.48,13.22-27.48h19.73L463.09,64.75v26H446.75Z" transform="translate(-2.84 -17.27)"/><path d="M137.64,114.75a17.43,17.43,0,0,1,4.89.61,18.33,18.33,0,0,1,3.37,1.3,13.59,13.59,0,0,1,1.55.91l-3.28,5.49c-.24-.18-.65-.45-1.24-.8a10.52,10.52,0,0,0-2.07-.93,7.74,7.74,0,0,0-2.49-.41,5.72,5.72,0,0,0-2.84.62,2,2,0,0,0-1.08,1.86,2.22,2.22,0,0,0,.58,1.51,5.72,5.72,0,0,0,1.78,1.28,33,33,0,0,0,3,1.31A20.25,20.25,0,0,1,143,129a11.55,11.55,0,0,1,2.61,2,9,9,0,0,1,1.79,2.65,8.58,8.58,0,0,1,.66,3.42,7.74,7.74,0,0,1-3.48,6.71,11.7,11.7,0,0,1-3.64,1.63,16.44,16.44,0,0,1-4.22.54,20,20,0,0,1-5.55-.71,19.66,19.66,0,0,1-4-1.53,12.55,12.55,0,0,1-1.8-1.09l3.4-5.71c.18.13.53.35,1.06.66a17.3,17.3,0,0,0,1.92.94,17.64,17.64,0,0,0,2.42.83,9.81,9.81,0,0,0,2.54.34,5.18,5.18,0,0,0,3.15-.8,2.58,2.58,0,0,0,1-2.13,2.64,2.64,0,0,0-.66-1.76,6.69,6.69,0,0,0-2-1.46A30.33,30.33,0,0,0,135,132a20.64,20.64,0,0,1-3.7-1.94,9.32,9.32,0,0,1-2.79-2.84,7.87,7.87,0,0,1-1.07-4.24,7,7,0,0,1,1.42-4.38,9.19,9.19,0,0,1,3.76-2.86A12.51,12.51,0,0,1,137.64,114.75Z" transform="translate(-2.84 -17.27)"/><path d="M152.41,115.3h6.81v30.05h-6.81Z" transform="translate(-2.84 -17.27)"/><path d="M170.79,121.53l.5.09v23.73h-6.81v-30h9.29L186,139l-.5.09V115.3h6.81v30.05h-9.34Z" transform="translate(-2.84 -17.27)"/><path d="M213.32,139.16a11.28,11.28,0,0,0,3.81-.62,10.82,10.82,0,0,0,2.56-1.21l2.92,5.79A12.7,12.7,0,0,1,219,145a18.12,18.12,0,0,1-6.13.94,16.57,16.57,0,0,1-6.24-1.17,15.9,15.9,0,0,1-5.14-3.26,15.37,15.37,0,0,1-3.48-4.94,15.43,15.43,0,0,1,3.46-17.32,16,16,0,0,1,5.15-3.29,16.66,16.66,0,0,1,6.25-1.17,18.13,18.13,0,0,1,6.13.93,12.67,12.67,0,0,1,3.66,1.85l-2.92,5.78a10.05,10.05,0,0,0-2.56-1.22,11.53,11.53,0,0,0-3.81-.6,10.55,10.55,0,0,0-4.06.72,8.13,8.13,0,0,0-2.89,2,8.37,8.37,0,0,0-1.73,2.83,9.92,9.92,0,0,0,0,6.63,8.08,8.08,0,0,0,4.62,4.81A10.55,10.55,0,0,0,213.32,139.16Z" transform="translate(-2.84 -17.27)"/><path d="M226.75,115.3h19.19v6H233.53v6.12h12.3v5.79h-12.3v6.21h12.41v6H226.75Z" transform="translate(-2.84 -17.27)"/><path d="M274,120.53a4.87,4.87,0,0,0-2.65.72,7.91,7.91,0,0,0-1.94,1.67,10.63,10.63,0,0,0-1.19,1.74,9.36,9.36,0,0,0-.46.93l-5.83-2.67a6.76,6.76,0,0,1,.44-1.19,10.85,10.85,0,0,1,1.23-2.09,11.9,11.9,0,0,1,2.22-2.3,11.67,11.67,0,0,1,3.4-1.85,14,14,0,0,1,4.78-.74,13.29,13.29,0,0,1,5.29.91,8.69,8.69,0,0,1,3.33,2.38,9.25,9.25,0,0,1,1.74,3.17,11.19,11.19,0,0,1,.52,3.28,9.56,9.56,0,0,1-.78,3.79,16.13,16.13,0,0,1-2,3.46,24.88,24.88,0,0,1-2.69,3c-.95.9-1.87,1.69-2.74,2.37s-1.61,1.21-2.22,1.6l-1.09.73h11.31v5.92H263.06V140l1.55-1.11c.81-.58,1.77-1.3,2.9-2.17s2.31-1.81,3.53-2.85,2.36-2.12,3.42-3.22a21.58,21.58,0,0,0,2.58-3.26,5.58,5.58,0,0,0,1-2.94,3.67,3.67,0,0,0-1.06-3A4.52,4.52,0,0,0,274,120.53Z" transform="translate(-2.84 -17.27)"/><path d="M288.17,130.34a21.07,21.07,0,0,1,1-6.84,14.17,14.17,0,0,1,2.7-4.87A11.36,11.36,0,0,1,305,115.72a11,11,0,0,1,3.91,2.91,14.14,14.14,0,0,1,2.68,4.87,21.65,21.65,0,0,1,1,6.84,22.91,22.91,0,0,1-1,7.13,13.2,13.2,0,0,1-2.68,4.82A10.75,10.75,0,0,1,305,145a12.52,12.52,0,0,1-9.22,0,11,11,0,0,1-3.92-2.73,13.23,13.23,0,0,1-2.7-4.82A22.29,22.29,0,0,1,288.17,130.34Zm6.83,0a18,18,0,0,0,.67,5.38,6.59,6.59,0,0,0,1.86,3.15,4.28,4.28,0,0,0,2.87,1,4.23,4.23,0,0,0,2.86-1,6.64,6.64,0,0,0,1.84-3.16,18.84,18.84,0,0,0,.65-5.37,18.18,18.18,0,0,0-.65-5.19,7.38,7.38,0,0,0-1.84-3.27,4.17,4.17,0,0,0-5.73,0,7.3,7.3,0,0,0-1.86,3.27A17.45,17.45,0,0,0,295,130.34Z" transform="translate(-2.84 -17.27)"/><path d="M326.92,120.53a4.9,4.9,0,0,0-2.65.72,7.68,7.68,0,0,0-1.93,1.67,10.76,10.76,0,0,0-1.2,1.74c-.27.53-.42.83-.45.93l-5.83-2.67a6.43,6.43,0,0,1,.43-1.19,12,12,0,0,1,3.45-4.39,11.8,11.8,0,0,1,3.4-1.85,14,14,0,0,1,4.78-.74,13.37,13.37,0,0,1,5.3.91,8.73,8.73,0,0,1,3.32,2.38,9.25,9.25,0,0,1,1.74,3.17,11.21,11.21,0,0,1,.53,3.28,9.4,9.4,0,0,1-.79,3.79,15.35,15.35,0,0,1-2,3.46,25.69,25.69,0,0,1-2.68,3c-1,.9-1.87,1.69-2.75,2.37s-1.61,1.21-2.22,1.6l-1.09.73h11.32v5.92H316V140l1.54-1.11c.81-.58,1.78-1.3,2.91-2.17s2.3-1.81,3.53-2.85a45.75,45.75,0,0,0,3.41-3.22,21.07,21.07,0,0,0,2.59-3.26,5.67,5.67,0,0,0,1-2.94,3.7,3.7,0,0,0-1.06-3A4.57,4.57,0,0,0,326.92,120.53Z" transform="translate(-2.84 -17.27)"/><path d="M341.65,121.31a8,8,0,0,1,1-2,9.34,9.34,0,0,1,2-2.17,10.56,10.56,0,0,1,3.09-1.68,12.52,12.52,0,0,1,4.25-.66,11.64,11.64,0,0,1,5.09,1.06,8.5,8.5,0,0,1,3.49,3,7.7,7.7,0,0,1,1.28,4.41,7,7,0,0,1-.55,2.79,6.4,6.4,0,0,1-1.41,2.11,4.22,4.22,0,0,1-1.82,1.09,4.48,4.48,0,0,1,2.24,1A7.29,7.29,0,0,1,363,136a9.08,9.08,0,0,1-1.45,5.09,10.08,10.08,0,0,1-4,3.49,13.82,13.82,0,0,1-11.42.09,11.22,11.22,0,0,1-3.71-2.89,9.47,9.47,0,0,1-1.83-3.3l6.24-3.1a8.29,8.29,0,0,0,.92,2.05,6.13,6.13,0,0,0,1.67,1.81,4,4,0,0,0,2.37.74,4.72,4.72,0,0,0,2.37-.55,3.8,3.8,0,0,0,1.51-1.49,4.29,4.29,0,0,0,.54-2.17,3.5,3.5,0,0,0-.61-2.12,3.55,3.55,0,0,0-1.6-1.25,5.84,5.84,0,0,0-2.21-.41h-.59v-4.87H352a4.17,4.17,0,0,0,1.89-.42,3.33,3.33,0,0,0,1.34-1.21,3.48,3.48,0,0,0,.48-1.86,3.38,3.38,0,0,0-1-2.44,3.79,3.79,0,0,0-2.85-1,4.62,4.62,0,0,0-3.42,1.4,6.41,6.41,0,0,0-.9,1.23,4.61,4.61,0,0,0-.42,1.08Z" transform="translate(-2.84 -17.27)"/></g></g></svg>